<svg id="visual" viewBox="0 0 900 360" width="900" height="360" xmlns="http://www.w3.org/2000/svg" xmlns:xlink="http://www.w3.org/1999/xlink" version="1.1"><rect x="0" y="0" width="900" height="360" fill="#202731"></rect><path d="M0 96L21.5 98.7C43 101.3 86 106.7 128.8 114.3C171.7 122 214.3 132 257.2 133.3C300 134.7 343 127.3 385.8 119.5C428.7 111.7 471.3 103.3 514.2 103.5C557 103.7 600 112.3 642.8 118.3C685.7 124.3 728.3 127.7 771.2 124.2C814 120.7 857 110.3 878.5 105.2L900 100L900 0L878.5 0C857 0 814 0 771.2 0C728.3 0 685.7 0 642.8 0C600 0 557 0 514.2 0C471.3 0 428.7 0 385.8 0C343 0 300 0 257.2 0C214.3 0 171.7 0 128.8 0C86 0 43 0 21.5 0L0 0Z" fill="#1212f4"></path><path d="M0 119L21.5 117.5C43 116 86 113 128.8 107.2C171.7 101.3 214.3 92.7 257.2 94.8C300 97 343 110 385.8 111.2C428.7 112.3 471.3 101.7 514.2 100.3C557 99 600 107 642.8 107C685.7 107 728.3 99 771.2 96.5C814 94 857 97 878.5 98.5L900 100L900 0L878.5 0C857 0 814 0 771.2 0C728.3 0 685.7 0 642.8 0C600 0 557 0 514.2 0C471.3 0 428.7 0 385.8 0C343 0 300 0 257.2 0C214.3 0 171.7 0 128.8 0C86 0 43 0 21.5 0L0 0Z" fill="#0050fc"></path><path d="M0 77L21.5 79.5C43 82 86 87 128.8 83.5C171.7 80 214.3 68 257.2 65.8C300 63.7 343 71.3 385.8 74.7C428.7 78 471.3 77 514.2 73C557 69 600 62 642.8 63.8C685.7 65.7 728.3 76.3 771.2 79C814 81.7 857 76.3 878.5 73.7L900 71L900 0L878.5 0C857 0 814 0 771.2 0C728.3 0 685.7 0 642.8 0C600 0 557 0 514.2 0C471.3 0 428.7 0 385.8 0C343 0 300 0 257.2 0C214.3 0 171.7 0 128.8 0C86 0 43 0 21.5 0L0 0Z" fill="#0074fa"></path><path d="M0 70L21.5 65.5C43 61 86 52 128.8 47.7C171.7 43.3 214.3 43.7 257.2 47.2C300 50.7 343 57.3 385.8 55.8C428.7 54.3 471.3 44.7 514.2 41.8C557 39 600 43 642.8 43.5C685.7 44 728.3 41 771.2 44.8C814 48.7 857 59.3 878.5 64.7L900 70L900 0L878.5 0C857 0 814 0 771.2 0C728.3 0 685.7 0 642.8 0C600 0 557 0 514.2 0C471.3 0 428.7 0 385.8 0C343 0 300 0 257.2 0C214.3 0 171.7 0 128.8 0C86 0 43 0 21.5 0L0 0Z" fill="#008fed"></path><path d="M0 16L21.5 20.3C43 24.7 86 33.3 128.8 37.2C171.7 41 214.3 40 257.2 39C300 38 343 37 385.8 34.2C428.7 31.3 471.3 26.7 514.2 24.3C557 22 600 22 642.8 20.8C685.7 19.7 728.3 17.3 771.2 16.3C814 15.3 857 15.7 878.5 15.8L900 16L900 0L878.5 0C857 0 814 0 771.2 0C728.3 0 685.7 0 642.8 0C600 0 557 0 514.2 0C471.3 0 428.7 0 385.8 0C343 0 300 0 257.2 0C214.3 0 171.7 0 128.8 0C86 0 43 0 21.5 0L0 0Z" fill="#49a2d5"></path></svg>