<svg id="visual" viewBox="0 0 900 360" width="900" height="360" xmlns="http://www.w3.org/2000/svg" xmlns:xlink="http://www.w3.org/1999/xlink" version="1.1"><rect x="0" y="0" width="900" height="360" fill="#202731"></rect><path d="M0 147L21.5 144.5C43 142 86 137 128.8 132.3C171.7 127.7 214.3 123.3 257.2 124C300 124.7 343 130.3 385.8 134.5C428.7 138.7 471.3 141.3 514.2 142.5C557 143.7 600 143.3 642.8 143.8C685.7 144.3 728.3 145.7 771.2 140.7C814 135.7 857 124.3 878.5 118.7L900 113L900 0L878.5 0C857 0 814 0 771.2 0C728.3 0 685.7 0 642.8 0C600 0 557 0 514.2 0C471.3 0 428.7 0 385.8 0C343 0 300 0 257.2 0C214.3 0 171.7 0 128.8 0C86 0 43 0 21.5 0L0 0Z" fill="#5f06e9"></path><path d="M0 118L21.5 118.7C43 119.3 86 120.7 128.8 114.2C171.7 107.7 214.3 93.3 257.2 89.5C300 85.7 343 92.3 385.8 99.3C428.7 106.3 471.3 113.7 514.2 113C557 112.3 600 103.7 642.8 102.3C685.7 101 728.3 107 771.2 109.3C814 111.7 857 110.3 878.5 109.7L900 109L900 0L878.5 0C857 0 814 0 771.2 0C728.3 0 685.7 0 642.8 0C600 0 557 0 514.2 0C471.3 0 428.7 0 385.8 0C343 0 300 0 257.2 0C214.3 0 171.7 0 128.8 0C86 0 43 0 21.5 0L0 0Z" fill="#7213ea"></path><path d="M0 65L21.5 65C43 65 86 65 128.8 65.5C171.7 66 214.3 67 257.2 68.8C300 70.7 343 73.3 385.8 74.5C428.7 75.7 471.3 75.3 514.2 76.2C557 77 600 79 642.8 77C685.7 75 728.3 69 771.2 65.5C814 62 857 61 878.5 60.5L900 60L900 0L878.5 0C857 0 814 0 771.2 0C728.3 0 685.7 0 642.8 0C600 0 557 0 514.2 0C471.3 0 428.7 0 385.8 0C343 0 300 0 257.2 0C214.3 0 171.7 0 128.8 0C86 0 43 0 21.5 0L0 0Z" fill="#821dec"></path><path d="M0 63L21.5 63.7C43 64.3 86 65.7 128.8 66.3C171.7 67 214.3 67 257.2 62.8C300 58.7 343 50.3 385.8 47.5C428.7 44.7 471.3 47.3 514.2 51.3C557 55.3 600 60.7 642.8 59C685.7 57.3 728.3 48.7 771.2 44.8C814 41 857 42 878.5 42.5L900 43L900 0L878.5 0C857 0 814 0 771.2 0C728.3 0 685.7 0 642.8 0C600 0 557 0 514.2 0C471.3 0 428.7 0 385.8 0C343 0 300 0 257.2 0C214.3 0 171.7 0 128.8 0C86 0 43 0 21.5 0L0 0Z" fill="#9127ed"></path><path d="M0 21L21.5 24.7C43 28.3 86 35.7 128.8 35.8C171.7 36 214.3 29 257.2 25.3C300 21.7 343 21.3 385.8 23.8C428.7 26.3 471.3 31.7 514.2 31C557 30.3 600 23.7 642.8 21.2C685.7 18.7 728.3 20.3 771.2 20.3C814 20.3 857 18.7 878.5 17.8L900 17L900 0L878.5 0C857 0 814 0 771.2 0C728.3 0 685.7 0 642.8 0C600 0 557 0 514.2 0C471.3 0 428.7 0 385.8 0C343 0 300 0 257.2 0C214.3 0 171.7 0 128.8 0C86 0 43 0 21.5 0L0 0Z" fill="#9e30ef"></path></svg>