<svg id="visual" viewBox="0 0 900 600" width="900" height="600" xmlns="http://www.w3.org/2000/svg" xmlns:xlink="http://www.w3.org/1999/xlink" version="1.1"><path d="M0 419L21.5 415.5C43 412 86 405 128.8 409.3C171.7 413.7 214.3 429.3 257.2 423.5C300 417.7 343 390.3 385.8 377.2C428.7 364 471.3 365 514.2 370.3C557 375.7 600 385.3 642.8 389C685.7 392.7 728.3 390.3 771.2 396C814 401.7 857 415.3 878.5 422.2L900 429L900 601L878.5 601C857 601 814 601 771.2 601C728.3 601 685.7 601 642.8 601C600 601 557 601 514.2 601C471.3 601 428.7 601 385.8 601C343 601 300 601 257.2 601C214.3 601 171.7 601 128.8 601C86 601 43 601 21.5 601L0 601Z" fill="#0066ff"></path><path d="M0 453L21.5 444.3C43 435.7 86 418.3 128.8 414.2C171.7 410 214.3 419 257.2 418.3C300 417.7 343 407.3 385.8 413.5C428.7 419.7 471.3 442.3 514.2 454.7C557 467 600 469 642.8 470.2C685.7 471.3 728.3 471.7 771.2 462.7C814 453.7 857 435.3 878.5 426.2L900 417L900 601L878.5 601C857 601 814 601 771.2 601C728.3 601 685.7 601 642.8 601C600 601 557 601 514.2 601C471.3 601 428.7 601 385.8 601C343 601 300 601 257.2 601C214.3 601 171.7 601 128.8 601C86 601 43 601 21.5 601L0 601Z" fill="#007aff"></path><path d="M0 495L21.5 488.8C43 482.7 86 470.3 128.8 463.3C171.7 456.3 214.3 454.7 257.2 463.2C300 471.7 343 490.3 385.8 494.3C428.7 498.3 471.3 487.7 514.2 484.2C557 480.7 600 484.3 642.8 478.7C685.7 473 728.3 458 771.2 461C814 464 857 485 878.5 495.5L900 506L900 601L878.5 601C857 601 814 601 771.2 601C728.3 601 685.7 601 642.8 601C600 601 557 601 514.2 601C471.3 601 428.7 601 385.8 601C343 601 300 601 257.2 601C214.3 601 171.7 601 128.8 601C86 601 43 601 21.5 601L0 601Z" fill="#008cff"></path><path d="M0 541L21.5 534.2C43 527.3 86 513.7 128.8 507C171.7 500.3 214.3 500.7 257.2 507.5C300 514.3 343 527.7 385.8 532C428.7 536.3 471.3 531.7 514.2 528.3C557 525 600 523 642.8 517.8C685.7 512.7 728.3 504.3 771.2 503.2C814 502 857 508 878.5 511L900 514L900 601L878.5 601C857 601 814 601 771.2 601C728.3 601 685.7 601 642.8 601C600 601 557 601 514.2 601C471.3 601 428.7 601 385.8 601C343 601 300 601 257.2 601C214.3 601 171.7 601 128.8 601C86 601 43 601 21.5 601L0 601Z" fill="#2b9dfc"></path><path d="M0 570L21.5 570.3C43 570.7 86 571.3 128.8 567.5C171.7 563.7 214.3 555.3 257.2 554.8C300 554.3 343 561.7 385.8 562C428.7 562.3 471.3 555.7 514.2 551.8C557 548 600 547 642.8 545.7C685.7 544.3 728.3 542.7 771.2 542.5C814 542.3 857 543.7 878.5 544.3L900 545L900 601L878.5 601C857 601 814 601 771.2 601C728.3 601 685.7 601 642.8 601C600 601 557 601 514.2 601C471.3 601 428.7 601 385.8 601C343 601 300 601 257.2 601C214.3 601 171.7 601 128.8 601C86 601 43 601 21.5 601L0 601Z" fill="#4facf7"></path></svg>