<svg id="visual" viewBox="0 0 900 360" width="900" height="360" xmlns="http://www.w3.org/2000/svg" xmlns:xlink="http://www.w3.org/1999/xlink" version="1.1"><rect x="0" y="0" width="900" height="360" fill="#202731"></rect><path d="M0 227L21.5 224.7C43 222.3 86 217.7 128.8 221.3C171.7 225 214.3 237 257.2 238.2C300 239.3 343 229.7 385.8 232.5C428.7 235.3 471.3 250.7 514.2 255.8C557 261 600 256 642.8 249.7C685.7 243.3 728.3 235.7 771.2 229.2C814 222.7 857 217.3 878.5 214.7L900 212L900 361L878.5 361C857 361 814 361 771.2 361C728.3 361 685.7 361 642.8 361C600 361 557 361 514.2 361C471.3 361 428.7 361 385.8 361C343 361 300 361 257.2 361C214.3 361 171.7 361 128.8 361C86 361 43 361 21.5 361L0 361Z" fill="#98f57a"></path><path d="M0 267L21.5 263.2C43 259.3 86 251.7 128.8 253C171.7 254.3 214.3 264.7 257.2 265.7C300 266.7 343 258.3 385.8 252.3C428.7 246.3 471.3 242.7 514.2 243.5C557 244.3 600 249.7 642.8 253.2C685.7 256.7 728.3 258.3 771.2 257.7C814 257 857 254 878.5 252.5L900 251L900 361L878.5 361C857 361 814 361 771.2 361C728.3 361 685.7 361 642.8 361C600 361 557 361 514.2 361C471.3 361 428.7 361 385.8 361C343 361 300 361 257.2 361C214.3 361 171.7 361 128.8 361C86 361 43 361 21.5 361L0 361Z" fill="#74c35a"></path><path d="M0 267L21.5 270.5C43 274 86 281 128.8 287.3C171.7 293.7 214.3 299.3 257.2 301.2C300 303 343 301 385.8 300.2C428.7 299.3 471.3 299.7 514.2 300.8C557 302 600 304 642.8 299.8C685.7 295.7 728.3 285.3 771.2 280.2C814 275 857 275 878.5 275L900 275L900 361L878.5 361C857 361 814 361 771.2 361C728.3 361 685.7 361 642.8 361C600 361 557 361 514.2 361C471.3 361 428.7 361 385.8 361C343 361 300 361 257.2 361C214.3 361 171.7 361 128.8 361C86 361 43 361 21.5 361L0 361Z" fill="#51943b"></path><path d="M0 290L21.5 293.8C43 297.7 86 305.3 128.8 308.3C171.7 311.3 214.3 309.7 257.2 309.5C300 309.3 343 310.7 385.8 309.2C428.7 307.7 471.3 303.3 514.2 300.8C557 298.3 600 297.7 642.8 296.7C685.7 295.7 728.3 294.3 771.2 295.2C814 296 857 299 878.5 300.5L900 302L900 361L878.5 361C857 361 814 361 771.2 361C728.3 361 685.7 361 642.8 361C600 361 557 361 514.2 361C471.3 361 428.7 361 385.8 361C343 361 300 361 257.2 361C214.3 361 171.7 361 128.8 361C86 361 43 361 21.5 361L0 361Z" fill="#30671e"></path><path d="M0 340L21.5 338.2C43 336.3 86 332.7 128.8 330.3C171.7 328 214.3 327 257.2 325.8C300 324.7 343 323.3 385.8 324.7C428.7 326 471.3 330 514.2 331.5C557 333 600 332 642.8 331.2C685.7 330.3 728.3 329.7 771.2 327.7C814 325.7 857 322.3 878.5 320.7L900 319L900 361L878.5 361C857 361 814 361 771.2 361C728.3 361 685.7 361 642.8 361C600 361 557 361 514.2 361C471.3 361 428.7 361 385.8 361C343 361 300 361 257.2 361C214.3 361 171.7 361 128.8 361C86 361 43 361 21.5 361L0 361Z" fill="#103d02"></path></svg>