<svg id="visual" viewBox="0 0 900 360" width="900" height="360" xmlns="http://www.w3.org/2000/svg" xmlns:xlink="http://www.w3.org/1999/xlink" version="1.1"><rect x="0" y="0" width="900" height="360" fill="#202731"></rect><path d="M0 242L21.5 240C43 238 86 234 128.8 240.3C171.7 246.7 214.3 263.3 257.2 273C300 282.7 343 285.3 385.8 279.2C428.7 273 471.3 258 514.2 260.3C557 262.7 600 282.3 642.8 281C685.7 279.7 728.3 257.3 771.2 251.3C814 245.3 857 255.7 878.5 260.8L900 266L900 361L878.5 361C857 361 814 361 771.2 361C728.3 361 685.7 361 642.8 361C600 361 557 361 514.2 361C471.3 361 428.7 361 385.8 361C343 361 300 361 257.2 361C214.3 361 171.7 361 128.8 361C86 361 43 361 21.5 361L0 361Z" fill="#9e30ef" stroke-linecap="round" stroke-linejoin="miter"></path></svg>